<svg width="63" height="63" viewBox="0 0 63 63" fill="none" xmlns="http://www.w3.org/2000/svg">
<path d="M59.0625 35.4375H55.125C56.3924 32.4105 57.0938 29.0883 57.0938 25.5938C57.0938 11.4557 45.6381 0 31.5 0C17.3619 0 5.90625 11.4557 5.90625 25.5938C5.90625 29.0883 6.60762 32.4105 7.875 35.4375H3.9375C1.75957 35.4375 0 37.2094 0 39.375V59.0625C0 61.2281 1.75957 63 3.9375 63H59.0625C61.2404 63 63 61.2281 63 59.0625V39.375C63 37.2094 61.2404 35.4375 59.0625 35.4375ZM31.5 3.9375C43.4355 3.9375 53.1562 13.6582 53.1562 25.5938C53.1562 37.5293 43.4355 47.25 31.5 47.25C19.5645 47.25 9.84375 37.5293 9.84375 25.5938C9.84375 13.6582 19.5645 3.9375 31.5 3.9375ZM59.0625 59.0625H3.9375V39.375H9.95449C11.9971 42.5496 14.7041 45.2443 17.9033 47.25H12.7969C12.2555 47.25 11.8125 47.693 11.8125 48.2344V50.2031C11.8125 50.7445 12.2555 51.1875 12.7969 51.1875H50.2031C50.7445 51.1875 51.1875 50.7445 51.1875 50.2031V48.2344C51.1875 47.693 50.7445 47.25 50.2031 47.25H45.0967C48.2959 45.2443 51.0029 42.5496 53.0455 39.375H59.0625V59.0625Z" fill="white"/>
<path d="M40.6674 23.1033C41.0836 20.278 38.967 18.7588 36.075 17.7452L37.0133 13.917L34.7231 13.3374L33.8085 17.0645C33.2068 16.9108 32.5892 16.7679 31.9729 16.625L32.894 12.8737L30.6037 12.2927L29.6654 16.1196C29.167 16.0036 28.6766 15.8904 28.2021 15.7691L28.2048 15.757L25.045 14.9549L24.4354 17.4432C24.4354 17.4432 26.1358 17.8395 26.1001 17.8638C27.0278 18.0997 27.1948 18.7238 27.167 19.2198L26.0987 23.5805C26.1623 23.5966 26.2445 23.6209 26.3373 23.6573L26.0948 23.5966L24.5971 29.7055C24.4831 29.9913 24.1955 30.4213 23.546 30.2582C23.5699 30.2919 21.8813 29.8363 21.8813 29.8363L20.7441 32.5025L23.7263 33.2587C24.2803 33.4003 24.8237 33.5485 25.3578 33.6874L24.4102 37.5587L26.6991 38.1383L27.6375 34.3101C28.2631 34.4813 28.8701 34.6404 29.4639 34.7913L28.5282 38.6034L30.8185 39.183L31.7661 35.3197C35.6734 36.0719 38.6104 35.7686 39.847 32.175C40.8437 29.2823 39.798 27.6122 37.7423 26.5244C39.24 26.1739 40.3666 25.1724 40.6674 23.1033ZM35.4321 30.5682C34.7257 33.4623 29.9344 31.8973 28.3811 31.505L29.6402 26.3761C31.1935 26.771 36.173 27.5515 35.4321 30.5682ZM36.1412 23.0615C35.4958 25.694 31.509 24.3555 30.2167 24.028L31.3566 19.3775C32.6488 19.7051 36.8145 20.3157 36.1412 23.0615Z" fill="white"/>
</svg>
