<svg id="Layer_1" data-name="Layer 1" xmlns="http://www.w3.org/2000/svg" viewBox="0 0 48 47"><defs><style>.cls-1{fill:#fff;}</style></defs><title>footer-logo</title><path class="cls-1" d="M21.58,12.47l1.66,1.31a25.41,25.41,0,0,1,1.93-3.23A21.93,21.93,0,0,0,21.58,12.47Z" transform="translate(0 0)"/><path class="cls-1" d="M8.13,10.43A8.49,8.49,0,0,0,7.9,8.9,29.34,29.34,0,0,0,6,5.37c0-.06-0.11,0-0.08.06l1.82,5.26a0.6,0.6,0,0,0,.14-0.11A0.6,0.6,0,0,1,8.13,10.43Z" transform="translate(0 0)"/><path class="cls-1" d="M6.22,12.35a0.28,0.28,0,0,1-.3,0s-1.44-1.53-1.71-1.7A15.2,15.2,0,0,0,.06,9.71C0,9.71,0,9.79,0,9.79s5.8,3.06,5.83,3S6.11,12.49,6.22,12.35Z" transform="translate(0 0)"/><path class="cls-1" d="M31.09,43.32a3.67,3.67,0,0,0,1.91.25l0.61-.11c0.06,0,.06-0.08,0-0.08C32.69,43,29,40.9,28.19,39.48A9.38,9.38,0,0,1,28.66,37l-2.9-.89a28.51,28.51,0,0,0,1.49,3.59A22,22,0,0,0,31.09,43.32Z" transform="translate(0 0)"/><path class="cls-1" d="M33.38,28.3C33,28,33,28.3,32.11,30.69s-3.4,5.51-7.43,4.65a3.4,3.4,0,0,0,.55.53c0.19,0.19,1,.81,1,0.81a9.12,9.12,0,0,0,3.37,1.86c4,0.81,5.72-3.76,6.24-5.12a14.49,14.49,0,0,0,.69-3.59c0-.19,0-0.75-0.11-0.64a1.4,1.4,0,0,1-1.52.22A4.85,4.85,0,0,1,33.38,28.3Z" transform="translate(0 0)"/><path class="cls-1" d="M44.32,1.62a3.62,3.62,0,0,0-1.08-1c-1.11-.72-2.65-0.92-5.11,0a20.58,20.58,0,0,0-6.3,3.78,25.63,25.63,0,0,0-7.54,9.9s1,0.58,1.35.78L28,16.47s6.66,0.33,11.27-2.56c2.16-1.36,5.33-6.71,5.55-10.13A2.74,2.74,0,0,0,44.32,1.62Z" transform="translate(0 0)"/><path class="cls-1" d="M48,9.77c-0.06-.92-2.85-2-3.12-1.42-0.88,1.89-2.24,4.81-5.14,6.48C42.39,14.08,48.16,12.47,48,9.77Z" transform="translate(0 0)"/><path class="cls-1" d="M24.65,19.39A8.34,8.34,0,0,0,20,27.07,8,8,0,0,0,20.31,29a9.2,9.2,0,0,0,.55,1.61c0.47-3.87,1.85-7,4.45-9a6.6,6.6,0,0,1,4.06-1.5,4.27,4.27,0,0,1,1.16.08C30.15,19.67,28.07,17.61,24.65,19.39Z" transform="translate(0 0)"/><path class="cls-1" d="M32.77,22.12a4.81,4.81,0,0,0-1.35-.95,6.9,6.9,0,0,0-4,.67c-2.76,1.39-4.17,3.81-5.25,7.12a11.81,11.81,0,0,0-.52,2.87C22.6,33.19,23,34,24.23,34.31c3.51,0.86,5.91-2.39,6.88-4.62a27.88,27.88,0,0,1,1.52-3.51c0.39-.22,1.16,1,1.66,1.53a1.9,1.9,0,0,0,1.82.78C37.86,28.1,34,23.32,32.77,22.12Z" transform="translate(0 0)"/><path class="cls-1" d="M28.13,46.85c-0.69-.47-4.37-3.09-4.95-4.53-0.36-.86.17-2.81,0-3.73a26.18,26.18,0,0,0-.77-2.84c-0.64-1.72-2.54-5-3.07-6.73-0.08-.31-1.13-4.56,1.22-7.73,3.12-4.23,6.05-3.84,7.13-3.51C27,16.83,24,16,23,15.25c-1.3-1-3.34-3.17-4.89-4A4.91,4.91,0,0,0,17,10.77a6,6,0,0,0-1.27-.11c-0.69,0-5,.42-6.91,5.73-1.27,3.51-.25,5,0,5.48a2.19,2.19,0,0,0,.33.42c0.91,1,2.76,2.39,2.85,3.84,0,0.67-1.11,1.47-1.22,2.14-0.22,1.47.88,4.65,1.3,6.07s2.16,5.56,2.16,5.56a1.49,1.49,0,0,1,.25-0.83,3.35,3.35,0,0,1,.8.47l0.14,0.19a1.27,1.27,0,0,0-.11-0.22c-0.39-.78-1.46-2.95-1.93-4-0.17-.36-0.39-0.92-0.58-1.36a7,7,0,0,1,.39-4,2.86,2.86,0,0,1,1.71-1.25s4,5,4.84,6.93c0.61,1.34.8,4.4,1.46,5.7s3,3.59,4.23,4.81A2.4,2.4,0,0,0,27.3,47l0.77-.06A0.05,0.05,0,0,0,28.13,46.85Z" transform="translate(0 0)"/><path class="cls-1" d="M8.21,22.62a4.16,4.16,0,0,1-.39-0.53,4.61,4.61,0,0,1-.58-2.64c-0.06-.67-0.17-0.14-0.17-0.08a6.51,6.51,0,0,0,.14,4c0.5,1.31-.52,2.64-0.88,3.45s-0.36.95-.08,0.64A20.17,20.17,0,0,0,8.51,25a3.34,3.34,0,0,0,.33-1.72C8.62,23.07,8.4,22.82,8.21,22.62Z" transform="translate(0 0)"/><path class="cls-1" d="M11.8,10.74a7.77,7.77,0,0,1,1.35-.5,5.34,5.34,0,0,0-3.09.92A0.49,0.49,0,0,1,9.78,11a2.25,2.25,0,0,0-1.66-.53,3.56,3.56,0,0,0-2.79,1.81c-0.94,1.47-2.57,6.4-1.08,7.29,0.5,0.28,1.82-.81,3-1.59,0.22-.58.52-1.72,0.83-2.48C9.48,11.94,11,11.27,11.8,10.74ZM7.68,12.27c-0.3.19-1.11,0.42-1.3,0-0.11-.22.44-0.56,0.8-0.5C7.38,11.83,7.9,12.13,7.68,12.27Z" transform="translate(0 0)"/></svg>