<?xml version="1.0" encoding="utf-8"?>
<!-- Generator: Adobe Illustrator 19.2.0, SVG Export Plug-In . SVG Version: 6.00 Build 0)  -->
<svg version="1.1" id="Layer_1" focusable="false" xmlns="http://www.w3.org/2000/svg" xmlns:xlink="http://www.w3.org/1999/xlink"
	 x="0px" y="0px" viewBox="0 0 512 512" style="enable-background:new 0 0 512 512;" xml:space="preserve">
<path d="M289,136V0H89C75.7,0,65,10.7,65,24v464c0,13.3,10.7,24,24,24h336c13.3,0,24-10.7,24-24V160H313
	C299.8,160,289,149.2,289,136z M129,72c0-4.4,3.6-8,8-8h80c4.4,0,8,3.6,8,8v16c0,4.4-3.6,8-8,8h-80c-4.4,0-8-3.6-8-8V72z M129,136
	c0-4.4,3.6-8,8-8h80c4.4,0,8,3.6,8,8v16c0,4.4-3.6,8-8,8h-80c-4.4,0-8-3.6-8-8V136z M321.8,384H369c8.8,0,16,7.2,16,16
	s-7.2,16-16,16h-47.2c-16.5,0-31.3-9.1-38.6-23.9c-2.9-5.9-8.1-6.5-10.2-6.5s-7.2,0.6-10,6.2l-7.7,15.3c-2.7,5.4-8.3,8.8-14.3,8.8
	c-0.4,0-0.8,0-1.1,0c-6.4-0.5-12-4.8-14-10.9L209,354.6l-10.6,31.9c-5.9,17.7-22.4,29.5-41,29.5H145c-8.8,0-16-7.2-16-16
	s7.2-16,16-16h12.4c4.8,0,9.1-3.1,10.6-7.7l18.2-54.6c3.3-9.8,12.4-16.4,22.8-16.4s19.5,6.6,22.8,16.4l13.9,41.6
	c19.8-16.2,54.1-9.7,66,14.2C313.7,381.6,317.6,384,321.8,384L321.8,384z M442,105L344.1,7c-4.5-4.5-10.6-7-17-7H321v128h128v-6.1
	C449,115.6,446.5,109.5,442,105z"/>
</svg>
