<svg id="Layer_1" data-name="Layer 1" xmlns="http://www.w3.org/2000/svg" xmlns:xlink="http://www.w3.org/1999/xlink" viewBox="0 0 576.03 478.16"><defs><style>.cls-1{fill:#fff;}.cls-2{fill:#2775c9;}.cls-3{fill:url(#linear-gradient);}.cls-4{fill:none;stroke:#000;stroke-opacity:0.1;}.cls-5{fill:#00dcfa;}.cls-6{fill:url(#linear-gradient-2);}</style><linearGradient id="linear-gradient" x1="-174.73" y1="451.7" x2="-174.73" y2="447.28" gradientTransform="matrix(30, 0, 0, -30, 5540, 13685.16)" gradientUnits="userSpaceOnUse"><stop offset="0"/><stop offset="1"/></linearGradient><linearGradient id="linear-gradient-2" x1="-169.58" y1="451.5" x2="-169.58" y2="447.22" xlink:href="#linear-gradient"/></defs><title>hand-with-coins</title><path d="M565.3,345.1c-11.8-10.7-30.2-10-42.6,0L430.3,419a63.66,63.66,0,0,1-40,14H272a16,16,0,0,1,0-32h78.3c15.9,0,30.7-10.9,33.3-26.6A32,32,0,0,0,352,337H192a117.69,117.69,0,0,0-74.1,26.3L71.4,401H16A16,16,0,0,0,0,417v96a16,16,0,0,0,16,16H372.8a64.08,64.08,0,0,0,40-14L564,394A32,32,0,0,0,565.3,345.1Z" transform="translate(0 -50.84)"/><g id="Dai_Circle" data-name="Dai/Circle"><path id="Shape" d="M375.54,50.84a67.22,67.22,0,1,0,67.22,67.22A67.22,67.22,0,0,0,375.54,50.84Z" transform="translate(0 -50.84)"/><path id="Combined-Shape" class="cls-1" d="M375.32,81.58L412,118.3l-36.31,36.31L339,117.89ZM386,118.15l15.65,0.09L375.37,92l-25.93,25.93L365.09,118l10.37-10.37Z" transform="translate(0 -50.84)"/></g><circle id="b" cx="298.1" cy="200.56" r="66.29"/><circle id="b-2" data-name="b" class="cls-2" cx="298.1" cy="200.56" r="66.29"/><circle id="b-3" data-name="b" class="cls-3" cx="298.1" cy="200.56" r="66.29"/><circle class="cls-4" cx="298.1" cy="200.56" r="64.08"/><path class="cls-1" d="M297,302.22a51.92,51.92,0,1,1,51.92-51.92A51.92,51.92,0,0,1,297,302.22ZM293.91,231a11.4,11.4,0,0,0-10.83,10.92c0,5.35,3.27,8.84,10.21,10.3l4.86,1.15c4.73,1.1,6.67,2.7,6.67,5.39s-3.4,5.35-7.82,5.35a8.4,8.4,0,0,1-8-4,3,3,0,0,0-2.7-1.72h-2.61a1.55,1.55,0,0,0-1.24,1.8h0A12.06,12.06,0,0,0,294,269.38v3.71a3.12,3.12,0,0,0,6.23,0v-3.76a11.58,11.58,0,0,0,11.45-11.4c0-5.61-3.23-8.84-10.87-10.47l-4.42-1c-4.42-1.1-6.5-2.56-6.5-5s2.65-5.21,7.07-5.21a7.25,7.25,0,0,1,7,3.58,3.54,3.54,0,0,0,3.18,2h2.08a1.86,1.86,0,0,0,1.37-2.21,11.71,11.71,0,0,0-10.52-8.84v-3a3.12,3.12,0,0,0-6.23,0V231Zm-35.84,19.27a38.84,38.84,0,0,0,26.51,36.81h0.62a2,2,0,0,0,2-2h0v-0.93a4.15,4.15,0,0,0-2.56-3.84,32.52,32.52,0,0,1,0-60.32,4.11,4.11,0,0,0,2.56-3.8v-1a1.86,1.86,0,0,0-2.47-1.77A38.84,38.84,0,0,0,258.07,250.29Zm77.86,0a38.84,38.84,0,0,0-26.51-36.77h-0.66a2.08,2.08,0,0,0-2.08,2.08v0.66a4.42,4.42,0,0,0,2.7,4,32.52,32.52,0,0,1,0,60.28,4.42,4.42,0,0,0-2.65,3.93v0.75a2.08,2.08,0,0,0,2.74,1.94A38.84,38.84,0,0,0,335.93,250.29Z" transform="translate(0 -50.84)"/><circle id="b-4" data-name="b" cx="452.58" cy="204.41" r="64.22"/><circle id="b-5" data-name="b" class="cls-5" cx="452.58" cy="204.41" r="64.22"/><circle id="b-6" data-name="b" class="cls-6" cx="452.58" cy="204.41" r="64.22"/><circle class="cls-4" cx="452.58" cy="204.41" r="62.08"/><path class="cls-1" d="M465.72,212.44a29.84,29.84,0,0,0-29.47,26.49,29.65,29.65,0,1,0,32.64,32.64A29.65,29.65,0,0,0,465.72,212.44Zm22.72,33a23.09,23.09,0,0,1-19.34,19.34V245.43h19.34Zm-71.73,19.64a23.09,23.09,0,0,1,19.34-19.4V265H416.72v0.05Zm45.43,6.7a23,23,0,0,1-45.43,0h45.43Zm0.26-26.34V265H442.75V245.43H462.4Zm26-6.7H443A23,23,0,0,1,488.44,238.73Z" transform="translate(0 -50.84)"/></svg>