<svg width="106" height="106" viewBox="0 0 106 106" fill="none" xmlns="http://www.w3.org/2000/svg">
<path d="M69.5625 6.625C86.0275 6.625 99.375 19.9725 99.375 36.4375C99.375 52.9025 86.0275 66.25 69.5625 66.25C65.6355 66.25 61.8866 65.4892 58.453 64.1095L49.6875 72.875H39.75V86.125H26.5V99.375H6.625V82.8125L41.8905 47.547C40.5108 44.1134 39.75 40.3645 39.75 36.4375C39.75 19.9725 53.0975 6.625 69.5625 6.625ZM69.5625 0C49.4424 0 33.125 16.3076 33.125 36.4375C33.125 39.6065 33.5277 42.7213 34.3254 45.7429L1.45522 78.6131C0.523521 79.5449 7.51052e-05 80.8087 0 82.1264L0 101.031C0 103.775 2.22455 106 4.96875 106H28.1562C30.9004 106 33.125 103.775 33.125 101.031V92.75H41.4062C44.1504 92.75 46.375 90.5255 46.375 87.7812V79.5H50.3736C51.6914 79.5 52.9553 78.9764 53.8871 78.0448L60.2573 71.6746C63.2787 72.4723 66.3935 72.875 69.5625 72.875C89.6826 72.875 106 56.5674 106 36.4375C106 16.3174 89.6924 0 69.5625 0ZM79.5 22.3594C81.7831 22.3594 83.6406 24.2169 83.6406 26.5C83.6406 28.7831 81.7831 30.6406 79.5 30.6406C77.2169 30.6406 75.3594 28.7831 75.3594 26.5C75.3594 24.2169 77.2169 22.3594 79.5 22.3594ZM79.5 16.5625C74.0116 16.5625 69.5625 21.0116 69.5625 26.5C69.5625 31.9884 74.0116 36.4375 79.5 36.4375C84.9884 36.4375 89.4375 31.9884 89.4375 26.5C89.4375 21.0116 84.9884 16.5625 79.5 16.5625Z" fill="white"/>
</svg>
