<svg width="74" height="74" viewBox="0 0 74 74" fill="none" xmlns="http://www.w3.org/2000/svg">
<g clip-path="url(#clip0)">
<path d="M71.6875 64.75H69.375V58.9688C69.375 57.053 67.822 55.5 65.9062 55.5H60.125V30.0625H55.5V55.5H46.25V30.0625H41.625V55.5H32.375V30.0625H27.75V55.5H18.5V30.0625H13.875V55.5H8.09375C6.17799 55.5 4.625 57.053 4.625 58.9688V64.75H2.3125C1.03528 64.75 5.48997e-09 65.7853 5.48997e-09 67.0625V68.2188C5.48997e-09 68.5254 0.121819 68.8195 0.338658 69.0363C0.555497 69.2532 0.849593 69.375 1.15625 69.375H72.8438C73.1504 69.375 73.4445 69.2532 73.6613 69.0363C73.8782 68.8195 74 68.5254 74 68.2188V67.0625C74 65.7853 72.9647 64.75 71.6875 64.75ZM9.25 60.125H64.75V64.75H9.25V60.125ZM72.8823 19.6563L39.1938 4.98098C37.7698 4.50634 36.2302 4.50634 34.8062 4.98098L1.11766 19.6563C0.788978 19.7813 0.50607 20.0033 0.306461 20.2928C0.106851 20.5823 -2.79686e-05 20.9257 5.48997e-09 21.2773V22.5469C5.48997e-09 23.5047 0.776566 24.2812 1.73438 24.2812H4.625V26.0156C4.625 26.9734 5.40157 27.75 6.35938 27.75H67.6406C68.5984 27.75 69.375 26.9734 69.375 26.0156V24.2812H72.2656C73.2234 24.2812 74 23.5047 74 22.5469V21.2773C74 20.5573 73.5553 19.9122 72.8823 19.6563ZM64.75 23.125H9.25V21.1585L36.4136 9.32559C36.7981 9.22485 37.2019 9.22485 37.5864 9.32559L64.75 21.1585V23.125Z" fill="white"/>
</g>
<defs>
<clipPath id="clip0">
<rect width="74" height="74" fill="white"/>
</clipPath>
</defs>
</svg>
