<svg id="Layer_1" data-name="Layer 1" xmlns="http://www.w3.org/2000/svg" viewBox="0 0 204.16 213.06"><defs><style>.cls-1{fill:#fff;}.cls-1,.cls-2{stroke:#000;stroke-miterlimit:10;stroke-width:4px;}</style></defs><title>btc-wallet</title><path d="M181.36,86.18H40.42a5.92,5.92,0,0,1,0-11.83h142a5.91,5.91,0,0,0,5.92-5.92,17.75,17.75,0,0,0-17.75-17.75H34.5A23.66,23.66,0,0,0,10.84,74.35V192.67A23.66,23.66,0,0,0,34.5,216.34H181.36c10.36,0,18.78-8,18.78-17.75V103.93C200.15,94.15,191.72,86.18,181.36,86.18Zm-16.71,76.91a11.83,11.83,0,1,1,11.83-11.83A11.83,11.83,0,0,1,164.65,163.09Z" transform="translate(-10.84 -3.28)"/><circle class="cls-1" cx="99.94" cy="71.62" r="69.62"/><path d="M142.06,66.28c1.37-9.12-5.58-14-15.08-17.3l3.08-12.36-7.52-1.87-3,12c-2-.5-4-1-6-1.42l3-12.11L109,31.39l-3.08,12.35c-1.64-.37-3.25-0.74-4.8-1.13v0L90.77,40l-2,8s5.58,1.28,5.46,1.36c3,0.76,3.59,2.78,3.5,4.38L94.23,67.82a6.69,6.69,0,0,1,.78.25l-0.8-.2L89.3,87.59a2.74,2.74,0,0,1-3.45,1.78C85.93,89.48,80.38,88,80.38,88l-3.73,8.61,9.79,2.44c1.82,0.46,3.6.94,5.36,1.38l-3.11,12.5,7.51,1.87,3.08-12.36c2.05,0.55,4,1.07,6,1.55l-3.07,12.3,7.52,1.87,3.11-12.47c12.83,2.43,22.47,1.45,26.53-10.15,3.27-9.34-.16-14.73-6.91-18.24C137.37,76.19,141.07,73,142.06,66.28Zm-17.19,24.1c-2.32,9.34-18,4.29-23.15,3l4.13-16.56C111,78.12,127.3,80.64,124.87,90.38Zm2.33-24.23c-2.12,8.5-15.21,4.18-19.45,3.12l3.74-15C115.73,55.31,129.41,57.28,127.2,66.15Z" transform="translate(-10.84 -3.28)"/><path d="M10.84,74.35V192.67A23.66,23.66,0,0,0,34.5,216.34H181.36c10.36,0,18.78-8,18.78-17.75V103.93c0-9.79-8.42-17.75-18.78-17.75H40.42a5.91,5.91,0,0,1-5.92-5.92m130.15,82.82a11.83,11.83,0,1,1,11.83-11.83A11.83,11.83,0,0,1,164.65,163.09Z" transform="translate(-10.84 -3.28)"/><rect class="cls-2" x="131.39" y="121.53" width="70.77" height="46.14" rx="12" ry="12"/></svg>