<svg width="63" height="63" viewBox="0 0 63 63" fill="none" xmlns="http://www.w3.org/2000/svg">
<path d="M61.5234 51.1875C62.3355 51.1875 63 51.852 63 52.6641V53.6484C63 54.4605 62.3355 55.125 61.5234 55.125H1.47656C0.664453 55.125 0 54.4605 0 53.6484V9.35156C0 8.53945 0.664453 7.875 1.47656 7.875H2.46094C3.27305 7.875 3.9375 8.53945 3.9375 9.35156V51.1875H61.5234ZM59.0625 14.8887V26.4551C59.0625 30.0604 54.682 31.8691 52.135 29.3221L47.7422 24.9293L35.9543 36.7172C35.6713 37.0002 35.2037 37.0002 34.9084 36.7172L27.5994 29.4082L13.7566 44.1246C13.4736 44.4199 13.0061 44.4322 12.7107 44.1615L10.9143 42.4758C10.6189 42.1928 10.6066 41.7252 10.8773 41.4299L26.9965 24.3141C27.2795 24.0064 27.7594 24.0064 28.0547 24.3018L35.4375 31.6846L44.9613 22.1607L40.5686 17.768C38.0092 15.2086 39.8303 10.8404 43.4355 10.8404H55.002C57.2414 10.8281 59.0625 12.6492 59.0625 14.8887ZM55.5188 14.8887C55.5188 14.6057 55.2973 14.3842 55.0143 14.3842H43.4479C42.9926 14.3842 42.7711 14.9379 43.091 15.2455L54.6574 26.8119C54.9773 27.1318 55.5188 26.9104 55.5188 26.4551V14.8887Z" fill="white"/>
</svg>
