<svg width="87" height="87" viewBox="0 0 87 87" fill="none" xmlns="http://www.w3.org/2000/svg">
<path d="M49.5409 66.2362L36.7053 79.0335C32.6627 82.4403 27.4887 84.2059 22.2068 83.9809C16.9249 83.7559 11.9198 81.5567 8.18151 77.8185C4.44325 74.0802 2.24412 69.0751 2.01914 63.7932C1.79415 58.5113 3.55969 53.3373 6.96651 49.2947L19.7542 36.4495L20.3298 35.9027C20.5975 35.6365 20.9378 35.4552 21.308 35.3816C21.6782 35.3079 22.062 35.345 22.4112 35.4884C22.7604 35.6318 23.0595 35.875 23.2712 36.1876C23.4828 36.5001 23.5976 36.8682 23.601 37.2457C23.601 38.0259 23.6682 38.803 23.8025 39.5768C23.8461 39.874 23.8193 40.1772 23.7244 40.4621C23.6294 40.7471 23.4689 41.0057 23.2557 41.2173L11.0436 53.4102C8.26059 56.2823 6.71864 60.1337 6.7506 64.1328C6.78256 68.132 8.38587 71.9582 11.2144 74.7855C14.043 77.6128 17.8699 79.2144 21.8691 79.2446C25.8683 79.2748 29.7189 77.7311 32.5898 74.9468L45.4159 62.1112L45.4734 62.0536C47.1987 60.3085 48.4768 58.1724 49.199 55.8271C49.9212 53.4818 50.0662 50.9968 49.6216 48.5835C49.177 46.1701 48.1559 43.8999 46.6454 41.966C45.1348 40.0321 43.1793 38.4917 40.9455 37.4759C40.577 37.3167 40.2678 37.046 40.0612 36.7018C39.8547 36.3576 39.7614 35.9573 39.7943 35.5573C39.8437 34.7163 39.9984 33.8848 40.2548 33.0823C40.3362 32.8279 40.4698 32.5933 40.6471 32.3935C40.8243 32.1937 41.0414 32.0331 41.2843 31.9221C41.5272 31.811 41.7906 31.7519 42.0577 31.7485C42.3248 31.7451 42.5897 31.7975 42.8353 31.9023C46.0103 33.251 48.8062 35.3573 50.9785 38.0369C53.1507 40.7165 54.633 43.8878 55.2957 47.273C55.9584 50.6583 55.7812 54.1543 54.7796 57.4552C53.778 60.7561 51.9826 63.7612 49.5505 66.2074L49.5409 66.2362ZM34.9114 51.079C36.8345 53.0077 39.1155 54.5425 41.6266 55.5974C41.8722 55.7023 42.1371 55.7547 42.4042 55.7513C42.6713 55.7479 42.9347 55.6887 43.1776 55.5777C43.4205 55.4666 43.6376 55.306 43.8149 55.1062C43.9921 54.9065 44.1257 54.6719 44.2071 54.4174C44.4635 53.6149 44.6182 52.7834 44.6676 51.9424C44.7005 51.5424 44.6072 51.1421 44.4007 50.7979C44.1942 50.4537 43.8849 50.183 43.5164 50.0238C41.2826 49.008 39.3271 47.4677 37.8166 45.5337C36.306 43.5998 35.2849 41.3296 34.8403 38.9163C34.3957 36.5029 34.5407 34.0179 35.2629 31.6726C35.9851 29.3273 37.2632 27.1913 38.9885 25.4461L39.046 25.3886L51.8721 12.5817C54.7442 9.79869 58.5956 8.25674 62.5947 8.2887C66.5939 8.32066 70.4201 9.92397 73.2474 12.7525C76.0747 15.5811 77.6763 19.408 77.7065 23.4072C77.7367 27.4064 76.193 31.257 73.4087 34.1279L61.187 46.3208C60.9739 46.5324 60.8133 46.791 60.7183 47.0759C60.6234 47.3609 60.5966 47.6641 60.6402 47.9613C60.7425 48.7351 60.8097 49.5121 60.8417 50.2924C60.8451 50.6699 60.9599 51.0379 61.1715 51.3505C61.3832 51.6631 61.6823 51.9063 62.0315 52.0497C62.3807 52.1931 62.7645 52.2302 63.1347 52.1565C63.505 52.0829 63.8452 51.9016 64.1129 51.6354L64.6885 51.0886L77.4954 38.2434C79.7304 36.3599 81.5498 34.0327 82.8384 31.4092C84.1269 28.7858 84.8565 25.9233 84.9809 23.0031C85.1053 20.0829 84.6217 17.1688 83.561 14.4453C82.5002 11.7217 80.8853 9.24824 78.8185 7.1815C76.7518 5.11475 74.2783 3.49983 71.5548 2.43904C68.8312 1.37825 65.9171 0.894734 62.9969 1.01912C60.0767 1.14351 57.2142 1.87309 54.5908 3.16164C51.9673 4.45018 49.6401 6.2696 47.7566 8.50461L34.9114 21.2923C30.9718 25.2478 28.7599 30.603 28.7599 36.1857C28.7599 41.7683 30.9718 47.1236 34.9114 51.079Z" fill="white"/>
<path d="M60.0384 50.1946L63.4093 30.2397C63.4392 30.0485 63.5064 29.8651 63.6069 29.7002C63.7075 29.5352 63.8394 29.3919 63.9952 29.2785C64.1509 29.1651 64.3274 29.0838 64.5145 29.0393C64.7016 28.9948 64.8955 28.988 65.0852 29.0193L66.2877 29.2195C66.4776 29.2496 66.6597 29.3173 66.8235 29.4185C66.9873 29.5198 67.1296 29.6526 67.2423 29.8095C67.3549 29.9663 67.4356 30.144 67.4798 30.3324C67.524 30.5207 67.5308 30.716 67.4997 30.907L64.555 48.2115L81.7689 50.862C81.9587 50.8921 82.1408 50.9597 82.3046 51.061C82.4684 51.1622 82.6108 51.2951 82.7234 51.4519C82.836 51.6088 82.9168 51.7865 82.961 51.9748C83.0051 52.1632 83.0119 52.3585 82.9808 52.5495L82.782 53.7603C82.7521 53.9515 82.6849 54.1349 82.5844 54.2998C82.4838 54.4648 82.3518 54.6081 82.1961 54.7215C82.0403 54.8349 81.8639 54.9162 81.6768 54.9607C81.4897 55.0052 81.2958 55.012 81.1061 54.9807L61.222 51.9012C60.8395 51.8358 60.4983 51.6206 60.2729 51.3026C60.0476 50.9845 59.9565 50.5896 60.0195 50.2041L60.0384 50.1946Z" fill="white"/>
<path d="M25.6298 36.4015L25.9995 56.5034C26.0047 56.695 25.971 56.8856 25.9005 57.0644C25.8299 57.2433 25.7239 57.4068 25.5884 57.5458C25.4528 57.6847 25.2905 57.7963 25.1107 57.8741C24.9308 57.952 24.737 57.9946 24.5403 57.9995H23.2853C23.0886 58.0045 22.8927 57.9718 22.709 57.9031C22.5252 57.8345 22.3572 57.7312 22.2144 57.5993C22.0717 57.4674 21.957 57.3094 21.8771 57.1344C21.7971 56.9594 21.7533 56.7707 21.7483 56.5792L21.4564 39.1853L3.576 39.7818C3.37605 39.792 3.17603 39.763 2.98776 39.6967C2.79949 39.6304 2.62679 39.528 2.47987 39.3956C2.33296 39.2632 2.2148 39.1034 2.13238 38.9258C2.04996 38.7482 2.00496 38.5563 2.00003 38.3615V37.14C1.99735 36.7581 2.14871 36.3905 2.42157 36.116C2.69444 35.8416 3.06703 35.6823 3.45926 35.6724L24.0928 35.0001C24.4894 34.995 24.8721 35.1422 25.158 35.4098C25.4439 35.6775 25.6099 36.044 25.6201 36.4299L25.6298 36.4015Z" fill="white"/>
</svg>
