<svg width="101" height="104" viewBox="0 0 101 104" fill="none" xmlns="http://www.w3.org/2000/svg">
<path d="M50.5 1.625C22.6028 1.625 0 24.1719 0 52C0 79.8281 22.6028 102.375 50.5 102.375C78.3972 102.375 101 79.8281 101 52C101 24.1719 78.3972 1.625 50.5 1.625ZM89.8411 32.5H73.0417C71.2091 23.4812 68.1343 15.8031 64.245 10.3391C75.4446 14.0359 84.6486 22.1 89.8411 32.5ZM68.4194 52C68.4194 56.6516 68.0936 60.9781 67.5438 65H33.4562C32.9065 60.9781 32.5806 56.6516 32.5806 52C32.5806 47.3484 32.9065 43.0219 33.4562 39H67.5438C68.0936 43.0219 68.4194 47.3484 68.4194 52ZM50.5 8.125C55.9776 8.125 63.0028 17.0828 66.4034 32.5H34.5966C37.9972 17.0828 45.0224 8.125 50.5 8.125ZM36.755 10.3391C32.8861 15.7828 29.7909 23.4609 27.9583 32.5H11.1589C16.3514 22.1 25.5554 14.0359 36.755 10.3391ZM6.51613 52C6.51613 47.4703 7.20847 43.1031 8.49133 39H26.9198C26.3903 43.1641 26.0645 47.4906 26.0645 52C26.0645 56.5094 26.37 60.8359 26.9198 65H8.49133C7.20847 60.8969 6.51613 56.5297 6.51613 52ZM11.1589 71.5H27.9583C29.7909 80.5188 32.8657 88.1969 36.755 93.6609C25.5554 89.9641 16.3514 81.9 11.1589 71.5ZM50.5 95.875C45.0224 95.875 37.9972 86.9172 34.5966 71.5H66.4034C63.0028 86.9172 55.9776 95.875 50.5 95.875ZM64.245 93.6609C68.1139 88.2172 71.2091 80.5391 73.0417 71.5H89.8411C84.6486 81.9 75.4446 89.9641 64.245 93.6609ZM74.0802 65C74.6097 60.8359 74.9355 56.5094 74.9355 52C74.9355 47.4906 74.63 43.1641 74.0802 39H92.5087C93.7915 43.1031 94.4839 47.4703 94.4839 52C94.4839 56.5297 93.7915 60.8969 92.5087 65H74.0802Z" fill="white"/>
</svg>
