<svg width="75" height="60" viewBox="0 0 75 60" fill="none" xmlns="http://www.w3.org/2000/svg">
<path d="M71.25 7.5H3.75C1.6793 7.5 0 9.1793 0 11.25V48.75C0 50.8207 1.6793 52.5 3.75 52.5H71.25C73.3207 52.5 75 50.8207 75 48.75V11.25C75 9.1793 73.3207 7.5 71.25 7.5ZM3.75 11.25H11.25C11.25 15.3867 7.88438 18.75 3.75 18.75V11.25ZM71.25 37.5C65.0461 37.5 60 42.5461 60 48.75H63.75C63.75 44.6133 67.1156 41.25 71.25 41.25V48.75H3.75V41.25C7.88438 41.25 11.25 44.6133 11.25 48.75H15C15 42.5461 9.95391 37.5 3.75 37.5V22.5C9.95391 22.5 15 17.4539 15 11.25H60C60 17.4539 65.0461 22.5 71.25 22.5V37.5ZM71.25 18.75C67.1156 18.75 63.75 15.3867 63.75 11.25H71.25V18.75ZM42.2965 14.3478L26.5988 33.4783H35.7558L31.3953 46.5217L46.657 28.2609H37.5L42.2965 14.3478Z" fill="white"/>
</svg>
