<svg width="84" height="108" viewBox="0 0 84 108" fill="none" xmlns="http://www.w3.org/2000/svg">
<g clip-path="url(#clip0)">
<path d="M47.7557 18.0542C47.8631 17.8452 47.9349 17.6193 47.9679 17.3863C47.9794 17.3168 47.9869 17.2467 47.9907 17.1764C48.0029 16.9965 47.994 16.8159 47.9641 16.6382C47.9576 16.5715 47.9474 16.5053 47.9338 16.4397C47.9338 16.4053 47.9338 16.371 47.9338 16.3366C47.8762 16.1366 47.7921 15.9453 47.6837 15.7679C47.6837 15.7679 47.6571 15.7374 47.6458 15.7183C47.5247 15.5339 47.3765 15.3691 47.2061 15.2297C47.1834 15.2106 47.1682 15.1801 47.1455 15.161L35.8624 6.61873C35.6716 6.46196 35.4483 6.35032 35.209 6.29203C34.9697 6.23374 34.7205 6.2303 34.4797 6.28195C34.2389 6.3336 34.0127 6.43903 33.8177 6.59046C33.6228 6.7419 33.4641 6.93547 33.3533 7.15691C33.1054 7.63833 33.0318 8.19171 33.1453 8.72185C33.2587 9.25199 33.5521 9.72573 33.9749 10.0616L40.039 14.6419C32.8378 15.3022 26.2696 18.3558 25.9626 18.5046C5.57187 27.2301 -5.03283 50.4294 2.32375 70.224C2.45674 70.6693 2.74654 71.0503 3.13874 71.2956C3.53094 71.5408 3.99855 71.6335 4.45379 71.5561C4.54574 71.5344 4.63574 71.505 4.72289 71.4684C5.64767 71.0867 6.06837 69.8767 5.66662 68.7965C-0.871303 51.1776 8.8882 30.3791 27.4862 22.417C27.5696 22.375 34.3387 19.2184 41.2784 18.7527L34.8693 24.8636C34.5047 25.2562 34.2904 25.7665 34.2647 26.3034C34.239 26.8403 34.4036 27.369 34.7291 27.795C35.4 28.6997 36.5521 28.8485 37.3064 28.1386L47.4032 18.5085C47.5426 18.3757 47.6614 18.2226 47.7557 18.0542Z" fill="white"/>
<path d="M40.7516 98.3549C40.6682 98.5746 40.6221 98.8068 40.6152 99.0419C40.6113 99.1119 40.6113 99.1819 40.6152 99.2519C40.6234 99.4315 40.6527 99.6096 40.7023 99.7824C40.7166 99.8482 40.7343 99.9132 40.7554 99.9771C40.7554 100.011 40.7554 100.046 40.7819 100.076C40.8622 100.269 40.968 100.45 41.0965 100.615C41.0965 100.615 41.1268 100.641 41.142 100.66C41.2833 100.83 41.4495 100.976 41.6347 101.095C41.6612 101.095 41.6764 101.141 41.7029 101.157L53.8578 108.344C54.0647 108.477 54.2985 108.561 54.542 108.591C54.7856 108.621 55.0327 108.596 55.2652 108.517C55.4978 108.438 55.7099 108.308 55.8861 108.136C56.0623 107.964 56.1981 107.755 56.2834 107.523C56.4748 107.016 56.4849 106.458 56.3119 105.945C56.139 105.432 55.7939 104.995 55.3359 104.71L48.779 100.844C55.8741 99.3549 62.0444 95.5685 62.3249 95.3853C81.59 84.3735 89.4923 60.1016 79.9413 41.2842C79.7588 40.8553 79.4267 40.5086 79.0077 40.3096C78.5887 40.1105 78.1118 40.073 77.6672 40.204C77.5782 40.2362 77.492 40.2758 77.4095 40.3223C76.5377 40.8223 76.2724 42.059 76.7765 43.0896C85.2853 59.8497 77.9515 81.6406 60.3768 91.6867C60.2972 91.7363 53.9336 95.6525 47.0925 96.9159L52.7776 90.1103C53.0961 89.6781 53.2516 89.1459 53.2162 88.6088C53.1808 88.0718 52.9568 87.5649 52.5843 87.1789C51.8263 86.3583 50.6551 86.343 49.9881 87.1369L41.051 97.8663C40.9276 98.0132 40.8267 98.1779 40.7516 98.3549Z" fill="white"/>
<path d="M69.6924 21.1002C67.7708 21.1002 66.846 22.1804 63.6926 22.1804C60.5393 22.1804 59.6221 21.1002 57.6929 21.1002C55.3056 21.1002 53.016 22.0553 51.3279 23.7553C49.6398 25.4554 48.6914 27.7611 48.6914 30.1654V31.8906C48.6909 32.3176 48.7743 32.7405 48.9368 33.1349C49.0992 33.5293 49.3376 33.8874 49.6381 34.1886C49.9386 34.4898 50.2953 34.7282 50.6877 34.89C51.0801 35.0517 51.5004 35.1337 51.9244 35.1312H75.4988C76.3512 35.1312 77.1687 34.7902 77.7714 34.1832C78.3742 33.5762 78.7128 32.7529 78.7128 31.8945V30.1654C78.7128 28.9733 78.4793 27.793 78.0258 26.6919C77.5722 25.5908 76.9075 24.5906 76.0696 23.7486C75.2318 22.9065 74.2372 22.2392 73.1429 21.7847C72.0486 21.3303 70.876 21.0977 69.6924 21.1002ZM75.4798 31.8906H51.9244V30.1654C51.9264 28.6202 52.5368 27.1389 53.6217 26.0463C54.7066 24.9537 56.1775 24.339 57.7118 24.3369C58.6897 24.3369 60.2777 25.4171 63.7116 25.4171C67.1454 25.4171 68.7259 24.3369 69.7113 24.3369C71.2456 24.339 72.7165 24.9537 73.8015 26.0463C74.8864 27.1389 75.4968 28.6202 75.4988 30.1654V31.8906H75.4798ZM63.6737 20.0238C65.5807 20.0238 67.4449 19.4543 69.0305 18.3873C70.6161 17.3204 71.852 15.8038 72.5817 14.0295C73.3115 12.2552 73.5025 10.3028 73.1304 8.41916C72.7584 6.53556 71.8401 4.80535 70.4916 3.44735C69.1432 2.08934 67.4251 1.16453 65.5547 0.789856C63.6844 0.415183 61.7457 0.607479 59.9838 1.34243C58.222 2.07737 56.7161 3.32196 55.6566 4.91881C54.5972 6.51565 54.0317 8.39303 54.0317 10.3135C54.0327 12.8886 55.0488 15.3578 56.8568 17.1786C58.6649 18.9994 61.1168 20.0228 63.6737 20.0238ZM63.6737 3.83621C64.948 3.83621 66.1937 4.21677 67.2533 4.92977C68.3129 5.64277 69.1387 6.65618 69.6264 7.84184C70.1141 9.02751 70.2417 10.3322 69.993 11.5909C69.7444 12.8496 69.1308 14.0058 68.2297 14.9133C67.3286 15.8207 66.1805 16.4387 64.9307 16.6891C63.6808 16.9395 62.3853 16.811 61.208 16.3198C60.0306 15.8287 59.0244 14.997 58.3164 13.93C57.6084 12.8629 57.2305 11.6084 57.2305 10.325C57.2305 8.60406 57.9093 6.95362 59.1177 5.73673C60.326 4.51985 61.9648 3.83621 63.6737 3.83621Z" fill="white"/>
<path d="M25.5986 88.6978C23.677 88.6978 22.7522 89.7779 19.5989 89.7779C16.4455 89.7779 15.5397 88.6978 13.5991 88.6978C11.2118 88.6978 8.92224 89.6528 7.23413 91.3529C5.54602 93.0529 4.59766 95.3587 4.59766 97.763V99.4882C4.59766 100.347 4.93627 101.17 5.53902 101.777C6.14176 102.384 6.95925 102.725 7.81166 102.725H31.3861C32.2385 102.725 33.056 102.384 33.6587 101.777C34.2615 101.17 34.6001 100.347 34.6001 99.4882V97.763C34.6001 95.3587 33.6517 93.0529 31.9636 91.3529C30.2755 89.6528 27.9859 88.6978 25.5986 88.6978ZM31.3861 99.4882H7.81166V97.763C7.81367 96.2178 8.42406 94.7365 9.50899 93.6439C10.5939 92.5512 12.0648 91.9365 13.5991 91.9345C14.577 91.9345 16.165 93.0147 19.5989 93.0147C23.0327 93.0147 24.6132 91.9345 25.5986 91.9345C27.1329 91.9365 28.6038 92.5512 29.6888 93.6439C30.7737 94.7365 31.3841 96.2178 31.3861 97.763V99.4882ZM19.5989 87.6176C21.5059 87.6176 23.3701 87.0481 24.9557 85.9811C26.5413 84.9141 27.7772 83.3976 28.5069 81.6233C29.2367 79.8489 29.4277 77.8965 29.0556 76.0129C28.6836 74.1293 27.7653 72.3991 26.4168 71.0411C25.0683 69.6831 23.3503 68.7583 21.4799 68.3836C19.6096 68.0089 17.6709 68.2012 15.909 68.9362C14.1472 69.6711 12.6413 70.9157 11.5818 72.5126C10.5224 74.1094 9.95686 75.9868 9.95686 77.9073C9.95786 80.4823 10.974 82.9516 12.782 84.7724C14.5901 86.5932 17.042 87.6165 19.5989 87.6176ZM19.5989 71.43C20.8732 71.43 22.1189 71.8105 23.1785 72.5235C24.2381 73.2365 25.0639 74.2499 25.5516 75.4356C26.0393 76.6213 26.1669 77.9259 25.9182 79.1846C25.6696 80.4433 25.056 81.5995 24.1549 82.507C23.2538 83.4145 22.1057 84.0325 20.8559 84.2828C19.606 84.5332 18.3105 84.4047 17.1332 83.9136C15.9558 83.4225 14.9496 82.5908 14.2416 81.5237C13.5336 80.4566 13.1557 79.2021 13.1557 77.9187C13.1567 76.1985 13.836 74.549 15.0442 73.333C16.2524 72.1169 17.8907 71.4338 19.5989 71.4338V71.43Z" fill="white"/>
</g>
<defs>
<clipPath id="clip0">
<rect width="84" height="108" fill="white"/>
</clipPath>
</defs>
</svg>
