<svg width="51" height="82" viewBox="0 0 51 82" fill="none" xmlns="http://www.w3.org/2000/svg">
<g clip-path="url(#clip0)">
<path d="M50.6275 21.1855C51.1247 20.6858 51.1247 19.8738 50.6275 19.3741L47.0208 15.7498C46.5236 15.2501 45.7155 15.2501 45.2183 15.7498L0.373336 60.8129C-0.123914 61.3126 -0.123914 62.1246 0.373336 62.6243L3.97999 66.2486C4.47724 66.7483 5.28527 66.7483 5.78252 66.2486L47.2551 24.5744L50.6275 21.1855ZM10.2004 35.875C12.811 35.875 15.4215 34.874 17.4121 32.8737C21.3949 28.8714 21.3949 22.3802 17.4121 18.3779C15.4215 16.376 12.811 15.375 10.2004 15.375C7.58984 15.375 4.97927 16.376 2.98709 18.3779C-0.995695 22.3802 -0.995695 28.8714 2.98709 32.8737C4.97927 34.874 7.58984 35.875 10.2004 35.875ZM6.59534 22.0007C7.55796 21.0333 8.83774 20.5 10.2004 20.5C11.5631 20.5 12.8428 21.0333 13.8071 22.0007C15.7961 23.9994 15.7945 27.2506 13.8071 29.2477C12.8444 30.2167 11.5631 30.75 10.2004 30.75C8.83774 30.75 7.55796 30.2167 6.59534 29.2493C4.60634 27.2506 4.60634 23.9994 6.59534 22.0007ZM40.8004 46.125C38.1898 46.125 35.5793 47.126 33.5871 49.1279C29.6043 53.1302 29.6043 59.6214 33.5871 63.6237C35.5793 65.624 38.1898 66.625 40.8004 66.625C43.411 66.625 46.0215 65.624 48.0121 63.6237C51.9949 59.6214 51.9949 53.1302 48.0121 49.1279C46.0215 47.126 43.411 46.125 40.8004 46.125ZM44.4071 59.9993C43.4444 60.9667 42.1631 61.5 40.8004 61.5C39.4377 61.5 38.158 60.9667 37.1953 59.9993C35.2063 58.0006 35.2063 54.7494 37.1953 52.7507C38.158 51.7833 39.4393 51.25 40.8004 51.25C42.1631 51.25 43.4428 51.7833 44.4071 52.7507C46.3961 54.7494 46.3945 58.0006 44.4071 59.9993Z" fill="white"/>
</g>
<defs>
<clipPath id="clip0">
<rect width="51" height="82" fill="white"/>
</clipPath>
</defs>
</svg>
