<svg id="Layer_2" data-name="Layer 2" xmlns="http://www.w3.org/2000/svg" viewBox="0 0 941.9 640.89"><defs><style>.cls-1,.cls-4,.cls-5{fill:#fff;}.cls-2{fill:none;stroke:#fff;stroke-linecap:round;stroke-miterlimit:10;stroke-width:23px;}.cls-3{fill:#627eea;}.cls-4{fill-opacity:0.6;}.cls-5{fill-opacity:0.2;}.cls-6{fill:#42945a;}.cls-7{fill:#f7931a;}.cls-8{fill:#bfbbbb;}</style></defs><title>problem</title><path class="cls-1" d="M574.49,87.4v8a4,4,0,0,1-4,4H558.39v6a6,6,0,0,1-6,6H355.13a6,6,0,0,1-6-6v-6H337a4,4,0,0,1-4-4v-8a4,4,0,0,1,2.49-3.72L452.2,39.41a4,4,0,0,1,3.08,0L572,83.69A4,4,0,0,1,574.49,87.4ZM562.41,240.35H345.07A12.07,12.07,0,0,0,333,252.43v8a4,4,0,0,0,4,4H570.46a4,4,0,0,0,4-4v-8A12.07,12.07,0,0,0,562.41,240.35ZM373.25,119.6v96.6H355.13a6,6,0,0,0-6,6V232.3H558.39V222.24a6,6,0,0,0-6-6H534.24V119.6H502v96.6h-32.2V119.6h-32.2v96.6h-32.2V119.6h-32.2Z" transform="translate(-20.59 -39.11)"/><line class="cls-2" x1="584.41" y1="131.89" x2="740.41" y2="131.89"/><line class="cls-2" x1="740.5" y1="131.89" x2="742.32" y2="287.88"/><line class="cls-2" x1="281.9" y1="133.9" x2="127.68" y2="133.9"/><line class="cls-2" x1="127.6" y1="133.9" x2="125.8" y2="292.74"/><path class="cls-1" d="M224,532.18H63.87a6.72,6.72,0,0,1,0-13.44H225.13a6.72,6.72,0,0,0,6.72-6.72,20.16,20.16,0,0,0-20.16-20.16H57.15a26.87,26.87,0,0,0-26.88,26.88V653.12A26.87,26.87,0,0,0,57.15,680H224c11.77,0,21.33-9,21.33-20.16V552.34C245.28,541.22,235.72,532.18,224,532.18Zm-19,87.35a13.44,13.44,0,1,1,13.44-13.44A13.44,13.44,0,0,1,205,619.53Z" transform="translate(-20.59 -39.11)"/><rect class="cls-1" x="211.08" y="539.23" width="26" height="52" rx="12" ry="12"/><circle id="b" cx="184.38" cy="407.86" r="29.86"/><circle id="b-2" data-name="b" class="cls-3" cx="184.38" cy="407.86" r="29.86"/><path class="cls-4" d="M206,423.07v17.66l14.92,6.67Z" transform="translate(-20.59 -39.11)"/><path class="cls-1" d="M206,423.07L191,447.4,206,440.73V423.07Z" transform="translate(-20.59 -39.11)"/><path class="cls-4" d="M206,458.84v12l14.93-20.66Z" transform="translate(-20.59 -39.11)"/><path class="cls-1" d="M206,470.84v-12L191,450.18Z" transform="translate(-20.59 -39.11)"/><path class="cls-5" d="M206,456.06l14.92-8.67L206,440.73v15.33Z" transform="translate(-20.59 -39.11)"/><path class="cls-4" d="M191,447.4L206,456.06V440.73Z" transform="translate(-20.59 -39.11)"/><path class="cls-1" d="M598.9,543.39c7.59-6.46,19.42-6,27.4,0L685.73,588a42.64,42.64,0,0,0,25.73,8.46h76.09c5.66,0,10.29-4.35,10.29-9.67s-4.63-9.67-10.29-9.67H737.18c-10.23,0-19.75-6.58-21.42-16.07-2.12-12.08,7.78-22.59,20.32-22.59H839a78.79,78.79,0,0,1,47.66,15.89l29.91,22.77h35.63c5.66,0,10.29,4.35,10.29,9.67v58c0,5.32-4.63,9.67-10.29,9.67H722.71A42.92,42.92,0,0,1,697,646l-97.25-73.09A18.58,18.58,0,0,1,598.9,543.39Z" transform="translate(-20.59 -39.11)"/><rect class="cls-1" x="629.75" y="387.94" width="142.24" height="71.12"/><path class="cls-6" d="M728.57,469.72H725V450.16a1.78,1.78,0,0,0-1.78-1.78h-3a5.33,5.33,0,0,0-3,.9l-3.41,2.27a1.78,1.78,0,0,0-.49,2.46h0l2,3a1.78,1.78,0,0,0,2.46.49h0l0.1-.07v12.32h-3.56a1.78,1.78,0,0,0-1.78,1.78v3.56a1.78,1.78,0,0,0,1.78,1.78h14.22a1.78,1.78,0,0,0,1.78-1.78V471.5a1.78,1.78,0,0,0-1.78-1.78h0Zm56.9-49.78h-128a7.11,7.11,0,0,0-7.11,7.11v71.12a7.11,7.11,0,0,0,7.11,7.11h128a7.11,7.11,0,0,0,7.11-7.11V427A7.11,7.11,0,0,0,785.46,419.93ZM661,494.61V480.39a14.22,14.22,0,0,1,14.22,14.22H661Zm0-49.78V430.6h14.22A14.22,14.22,0,0,1,661,444.83Zm60.45,42.67c-11.78,0-21.34-11.15-21.34-24.89s9.55-24.89,21.34-24.89,21.34,11.14,21.34,24.89S733.23,487.5,721.45,487.5Zm60.45,7.11H767.68a14.22,14.22,0,0,1,14.22-14.22v14.22Zm0-49.78a14.22,14.22,0,0,1-14.22-14.22h14.22v14.22Z" transform="translate(-20.59 -39.11)"/><circle id="b-3" data-name="b" cx="105.76" cy="393.06" r="30.26"/><circle id="b-4" data-name="b" class="cls-7" cx="105.76" cy="393.06" r="30.26"/><path id="e" d="M140.85,428.17c0.63-4.23-2.59-6.5-7-8l1.43-5.73-3.49-.87-1.39,5.58c-0.92-.23-1.86-0.44-2.79-0.66l1.4-5.61-3.49-.87-1.43,5.73c-0.76-.17-1.5-0.34-2.23-0.52v0l-4.81-1.2-0.93,3.72s2.59,0.59,2.53.63a1.86,1.86,0,0,1,1.62,2l-1.63,6.53L119,429l-0.37-.09L116.39,438a1.27,1.27,0,0,1-1.6.83c0,0.05-2.53-.63-2.53-0.63l-1.73,4,4.54,1.13,2.48,0.64-1.44,5.79,3.48,0.87,1.43-5.73,2.78,0.72-1.42,5.71,3.49,0.87,1.44-5.78c5.95,1.13,10.42.67,12.3-4.71,1.52-4.33-.07-6.83-3.2-8.46C138.68,432.76,140.39,431.26,140.85,428.17Zm-8,11.17c-1.08,4.33-8.37,2-10.73,1.4l1.92-7.68C126.43,433.66,134,434.82,132.88,439.34ZM134,428.1c-1,3.94-7.05,1.94-9,1.45l1.73-7C128.64,423.08,135,424,134,428.1Z" transform="translate(-20.59 -39.11)"/><path id="e-2" data-name="e" class="cls-1" d="M140.85,428.17c0.63-4.23-2.59-6.5-7-8l1.43-5.73-3.49-.87-1.39,5.58c-0.92-.23-1.86-0.44-2.79-0.66l1.4-5.61-3.49-.87-1.43,5.73c-0.76-.17-1.5-0.34-2.23-0.52v0l-4.81-1.2-0.93,3.72s2.59,0.59,2.53.63a1.86,1.86,0,0,1,1.62,2l-1.63,6.53L119,429l-0.37-.09L116.39,438a1.27,1.27,0,0,1-1.6.83c0,0.05-2.53-.63-2.53-0.63l-1.73,4,4.54,1.13,2.48,0.64-1.44,5.79,3.48,0.87,1.43-5.73,2.78,0.72-1.42,5.71,3.49,0.87,1.44-5.78c5.95,1.13,10.42.67,12.3-4.71,1.52-4.33-.07-6.83-3.2-8.46C138.68,432.76,140.39,431.26,140.85,428.17Zm-8,11.17c-1.08,4.33-8.37,2-10.73,1.4l1.92-7.68C126.43,433.66,134,434.82,132.88,439.34ZM134,428.1c-1,3.94-7.05,1.94-9,1.45l1.73-7C128.64,423.08,135,424,134,428.1Z" transform="translate(-20.59 -39.11)"/><circle id="b-5" data-name="b" cx="30.03" cy="410.43" r="30.03"/><circle id="b-6" data-name="b" class="cls-8" cx="30.03" cy="410.43" r="30.03"/><path id="e-3" data-name="e" d="M39.46,456l-2.86,1.11L38,451.56l2.89-1.16L45,433.52H55.3l-3,12.4,2.82-1.14-1.36,5.51-2.86,1.14-1.7,7H64.63l-1.75,7.15H37.11Z" transform="translate(-20.59 -39.11)"/><path id="e-4" data-name="e" class="cls-1" d="M39.46,456l-2.86,1.11L38,451.56l2.89-1.16L45,433.52H55.3l-3,12.4,2.82-1.14-1.36,5.51-2.86,1.14-1.7,7H64.63l-1.75,7.15H37.11Z" transform="translate(-20.59 -39.11)"/></svg>