<svg width="94" height="94" viewBox="0 0 94 94" fill="none" xmlns="http://www.w3.org/2000/svg">
<path d="M92.5312 70.5H35.25V63.1562C35.25 60.7145 33.2855 58.75 30.8438 58.75H22.0312C19.5895 58.75 17.625 60.7145 17.625 63.1562V70.5H1.46875C0.660937 70.5 0 71.1609 0 71.9688V74.9062C0 75.7141 0.660937 76.375 1.46875 76.375H17.625V83.7188C17.625 86.1605 19.5895 88.125 22.0312 88.125H30.8438C33.2855 88.125 35.25 86.1605 35.25 83.7188V76.375H92.5312C93.3391 76.375 94 75.7141 94 74.9062V71.9688C94 71.1609 93.3391 70.5 92.5312 70.5ZM29.375 82.25H23.5V64.625H29.375V82.25ZM92.5312 17.625H47V10.2812C47 7.83945 45.0355 5.875 42.5938 5.875H33.7812C31.3395 5.875 29.375 7.83945 29.375 10.2812V17.625H1.46875C0.660937 17.625 0 18.2859 0 19.0938V22.0312C0 22.8391 0.660937 23.5 1.46875 23.5H29.375V30.8438C29.375 33.2855 31.3395 35.25 33.7812 35.25H42.5938C45.0355 35.25 47 33.2855 47 30.8438V23.5H92.5312C93.3391 23.5 94 22.8391 94 22.0312V19.0938C94 18.2859 93.3391 17.625 92.5312 17.625ZM41.125 29.375H35.25V11.75H41.125V29.375ZM92.5312 44.0625H76.375V36.7188C76.375 34.277 74.4105 32.3125 71.9688 32.3125H63.1562C60.7145 32.3125 58.75 34.277 58.75 36.7188V44.0625H1.46875C0.660937 44.0625 0 44.7234 0 45.5312V48.4688C0 49.2766 0.660937 49.9375 1.46875 49.9375H58.75V57.2812C58.75 59.723 60.7145 61.6875 63.1562 61.6875H71.9688C74.4105 61.6875 76.375 59.723 76.375 57.2812V49.9375H92.5312C93.3391 49.9375 94 49.2766 94 48.4688V45.5312C94 44.7234 93.3391 44.0625 92.5312 44.0625ZM70.5 55.8125H64.625V38.1875H70.5V55.8125Z" fill="white"/>
</svg>
