<svg id="Layer_1" data-name="Layer 1" xmlns="http://www.w3.org/2000/svg" viewBox="0 0 679.15 264.8"><defs><style>.cls-1{fill:#37474f;}.cls-2,.cls-6,.cls-7{fill:#fff;}.cls-3{fill:#00dcfa;}.cls-4{fill:#2775c9;}.cls-5{fill:#627eea;}.cls-6{fill-opacity:0.6;}.cls-7{fill-opacity:0.2;}.cls-8{fill:#f7931a;}.cls-9{fill:#bfbbbb;}</style></defs><title>solution</title><path d="M372.57,159.88c6.4-5.39,16.38-5,23.1,0l50.11,37.21a36.24,36.24,0,0,0,21.69,7h64.16c4.77,0,8.68-3.63,8.68-8.06s-3.9-8.06-8.68-8.06H489.17c-8.62,0-16.65-5.49-18.06-13.39-1.79-10.07,6.56-18.83,17.14-18.83H575A67,67,0,0,1,615.21,169l25.22,19h30c4.77,0,8.68,3.63,8.68,8.06v48.33c0,4.43-3.9,8.06-8.68,8.06H477a36.47,36.47,0,0,1-21.69-7l-82-60.92A15.38,15.38,0,0,1,372.57,159.88Z"/><g id="Dai_Circle" data-name="Dai/Circle"><path id="Shape" class="cls-1" d="M418.54,86.48a33.37,33.37,0,1,0,33.38,33.37A33.37,33.37,0,0,0,418.54,86.48Z"/><path id="Combined-Shape" class="cls-2" d="M418.43,101.74L436.66,120l-18,18L400.4,119.76Zm5.28,18.16,7.77,0-13-13-12.88,12.88,7.77,0,5.15-5.15Z"/></g><circle class="cls-3" cx="512.17" cy="119.26" r="31.89"/><path class="cls-2" d="M518.9,97.34a15.27,15.27,0,0,0-15.09,13.57,15.18,15.18,0,1,0,16.71,16.71A15.18,15.18,0,0,0,518.9,97.34Zm11.63,16.89a11.82,11.82,0,0,1-9.9,9.9v-9.9h9.9Zm-36.72,10.06a11.82,11.82,0,0,1,9.9-9.93v9.9h-9.9v0Zm23.26,3.43a11.76,11.76,0,0,1-23.26,0h23.26Zm0.13-13.49v10H507.14v-10H517.2Zm13.33-3.43H507.27a11.76,11.76,0,0,1,23.26,0h0Z"/><circle class="cls-4" cx="469.25" cy="53.06" r="31.92"/><path class="cls-2" d="M468.75,76a23.44,23.44,0,1,1,23.44-23.44A23.44,23.44,0,0,1,468.75,76h0Zm-1.4-32.14a5.15,5.15,0,0,0-4.89,4.93c0,2.41,1.48,4,4.61,4.65L469.27,54c2.13,0.5,3,1.22,3,2.43s-1.54,2.41-3.53,2.41A3.79,3.79,0,0,1,465.16,57a1.36,1.36,0,0,0-1.22-.78h-1.18a0.7,0.7,0,0,0-.56.81h0a5.45,5.45,0,0,0,5.21,4.15v1.68a1.41,1.41,0,0,0,2.81,0v-1.7A5.23,5.23,0,0,0,475.39,56c0-2.53-1.46-4-4.91-4.73l-2-.44c-2-.5-2.93-1.16-2.93-2.27s1.2-2.35,3.19-2.35a3.27,3.27,0,0,1,3.17,1.62,1.6,1.6,0,0,0,1.44.92h0.94a0.84,0.84,0,0,0,.62-1,5.29,5.29,0,0,0-4.75-4V42.39a1.41,1.41,0,0,0-2.81,0v1.48Zm-16.18,8.7a17.54,17.54,0,0,0,12,16.62h0.28a0.9,0.9,0,0,0,.9-0.9h0V67.87a1.88,1.88,0,0,0-1.16-1.74,14.69,14.69,0,0,1,0-27.24,1.86,1.86,0,0,0,1.16-1.72V36.72a0.84,0.84,0,0,0-1.12-.8A17.54,17.54,0,0,0,451.17,52.56Zm35.16,0a17.54,17.54,0,0,0-12-16.6h-0.3a0.94,0.94,0,0,0-.94.94v0.3a2,2,0,0,0,1.22,1.8,14.69,14.69,0,0,1,0,27.22,2,2,0,0,0-1.2,1.78v0.34a0.94,0.94,0,0,0,1.24.88A17.54,17.54,0,0,0,486.33,52.56Z"/><circle id="b" cx="175.92" cy="42.99" r="28.49"/><circle id="b-2" data-name="b" class="cls-5" cx="175.92" cy="42.99" r="28.49"/><path class="cls-6" d="M176.87,20.2V37l14.24,6.36Z"/><path class="cls-2" d="M176.87,20.2L162.63,43.41,176.87,37V20.2Z"/><path class="cls-6" d="M176.87,54.33V65.78l14.25-19.71Z"/><path class="cls-2" d="M176.87,65.78V54.33l-14.24-8.26Z"/><path class="cls-7" d="M176.87,51.68l14.24-8.27-14.24-6.36V51.68Z"/><path class="cls-6" d="M162.63,43.41l14.24,8.27V37.05Z"/><circle id="b-3" data-name="b" cx="100.91" cy="28.87" r="28.87"/><circle id="b-4" data-name="b" class="cls-8" cx="100.91" cy="28.87" r="28.87"/><path id="e" d="M114.75,25.06c0.6-4-2.47-6.2-6.67-7.65l1.36-5.47-3.33-.83-1.33,5.32c-0.87-.22-1.77-0.42-2.67-0.63l1.34-5.36-3.33-.83-1.36,5.46c-0.72-.17-1.44-0.33-2.12-0.5v0l-4.59-1.15L91.17,17s2.47,0.57,2.42.6a1.77,1.77,0,0,1,1.55,1.94l-1.55,6.23,0.35,0.11-0.35-.09-2.18,8.72a1.21,1.21,0,0,1-1.53.79s-2.42-.6-2.42-0.6l-1.65,3.81,4.33,1.08,2.37,0.61L91.14,45.7l3.32,0.83,1.36-5.47,2.65,0.69-1.36,5.44L100.44,48l1.38-5.52c5.67,1.07,9.94.64,11.74-4.49,1.45-4.13-.07-6.52-3.06-8.07C112.67,29.45,114.31,28,114.75,25.06Zm-7.6,10.66c-1,4.13-8,1.9-10.24,1.34l1.83-7.32C101,30.3,108.22,31.41,107.14,35.72Zm1-10.72c-0.94,3.76-6.73,1.85-8.6,1.38l1.66-6.64C103.1,20.21,109.15,21.08,108.17,25Z"/><path id="e-2" data-name="e" class="cls-2" d="M114.75,25.06c0.6-4-2.47-6.2-6.67-7.65l1.36-5.47-3.33-.83-1.33,5.32c-0.87-.22-1.77-0.42-2.67-0.63l1.34-5.36-3.33-.83-1.36,5.46c-0.72-.17-1.44-0.33-2.12-0.5v0l-4.59-1.15L91.17,17s2.47,0.57,2.42.6a1.77,1.77,0,0,1,1.55,1.94l-1.55,6.23,0.35,0.11-0.35-.09-2.18,8.72a1.21,1.21,0,0,1-1.53.79s-2.42-.6-2.42-0.6l-1.65,3.81,4.33,1.08,2.37,0.61L91.14,45.7l3.32,0.83,1.36-5.47,2.65,0.69-1.36,5.44L100.44,48l1.38-5.52c5.67,1.07,9.94.64,11.74-4.49,1.45-4.13-.07-6.52-3.06-8.07C112.67,29.45,114.31,28,114.75,25.06Zm-7.6,10.66c-1,4.13-8,1.9-10.24,1.34l1.83-7.32C101,30.3,108.22,31.41,107.14,35.72Zm1-10.72c-0.94,3.76-6.73,1.85-8.6,1.38l1.66-6.64C103.1,20.21,109.15,21.08,108.17,25Z"/><circle id="b-5" data-name="b" cx="28.65" cy="45.45" r="28.65"/><circle id="b-6" data-name="b" class="cls-9" cx="28.65" cy="45.45" r="28.65"/><path id="e-3" data-name="e" d="M18,51.59l-2.73,1.06,1.31-5.27,2.76-1.11,4-16.1h9.8L30.22,42l2.69-1.09-1.3,5.25-2.73,1.09-1.62,6.65H42l-1.67,6.82H15.76Z"/><path id="e-4" data-name="e" class="cls-2" d="M18,51.59l-2.73,1.06,1.31-5.27,2.76-1.11,4-16.1h9.8L30.22,42l2.69-1.09-1.3,5.25-2.73,1.09-1.62,6.65H42l-1.67,6.82H15.76Z"/><path d="M182.91,126.67H33.32a6.28,6.28,0,0,1,0-12.56H184a6.28,6.28,0,0,0,6.28-6.28A18.84,18.84,0,0,0,171.45,89H27A25.11,25.11,0,0,0,1.93,114.11V239.68A25.11,25.11,0,0,0,27,264.8H182.91c11,0,19.93-8.45,19.93-18.84V145.51C202.84,135.12,193.9,126.67,182.91,126.67Zm-17.74,81.62a12.56,12.56,0,1,1,12.56-12.56A12.56,12.56,0,0,1,165.17,208.29Z"/><rect x="190.12" y="169.8" width="24.29" height="48.59" rx="11.3" ry="11.3"/><path d="M247.16,141.47v-2.91a4.37,4.37,0,0,1,4.37-4.37H317.1v-8.74a4.37,4.37,0,0,1,7.46-3.09l14.57,14.57a4.37,4.37,0,0,1,0,6.18l-14.57,14.57a4.37,4.37,0,0,1-7.46-3.09v-8.74H251.53A4.37,4.37,0,0,1,247.16,141.47ZM336,169.15H270.48v-8.74a4.37,4.37,0,0,0-7.46-3.09l-14.57,14.57a4.37,4.37,0,0,0,0,6.18L263,192.64a4.37,4.37,0,0,0,7.46-3.09v-8.74H336a4.37,4.37,0,0,0,4.37-4.37v-2.91A4.37,4.37,0,0,0,336,169.15Z"/></svg>