<svg width="72" height="66" viewBox="0 0 72 66" fill="none" xmlns="http://www.w3.org/2000/svg">
<path d="M16 66C7.163 66 0 58.837 0 50C0 41.163 7.163 34 16 34C24.837 34 32 41.163 32 50C32 58.837 24.837 66 16 66ZM15.75 61.5C18.8663 61.5 21.855 60.2621 24.0585 58.0585C26.2621 55.855 27.5 52.8663 27.5 49.75C27.5 43.26 22.24 38 15.75 38C9.26 38 4 43.26 4 49.75C4 56.24 9.26 61.5 15.75 61.5ZM15.05 45.39V44.65C15.05 44.463 15.1243 44.2837 15.2565 44.1515C15.3887 44.0193 15.568 43.945 15.755 43.945C15.942 43.945 16.1213 44.0193 16.2535 44.1515C16.3857 44.2837 16.46 44.463 16.46 44.65V45.34C17.0168 45.3802 17.5467 45.5952 17.9741 45.9543C18.4015 46.3135 18.7045 46.7984 18.84 47.34C18.8641 47.4473 18.8451 47.5598 18.7872 47.6533C18.7292 47.7468 18.6369 47.8139 18.53 47.84H18.06C17.9088 47.8392 17.7609 47.7956 17.6334 47.7142C17.506 47.6328 17.4043 47.5169 17.34 47.38C17.1815 47.1059 16.947 46.8836 16.6648 46.7398C16.3827 46.5961 16.0649 46.5371 15.75 46.57C14.75 46.57 14.15 47.19 14.15 47.75C14.15 48.31 14.62 48.64 15.62 48.89L16.62 49.11C18.35 49.48 19.08 50.21 19.08 51.48C19.0696 52.1627 18.7931 52.8145 18.3093 53.2964C17.8256 53.7783 17.1728 54.0523 16.49 54.06V54.91C16.49 55.097 16.4157 55.2763 16.2835 55.4085C16.1513 55.5407 15.972 55.615 15.785 55.615C15.598 55.615 15.4187 55.5407 15.2865 55.4085C15.1543 55.2763 15.08 55.097 15.08 54.91V54.07C14.4762 54.0608 13.8924 53.8517 13.4201 53.4753C12.9479 53.0989 12.6137 52.5766 12.47 51.99C12.4613 51.9447 12.4617 51.8981 12.4711 51.8529C12.4805 51.8077 12.4987 51.7649 12.5247 51.7268C12.5507 51.6887 12.584 51.6561 12.6227 51.6309C12.6614 51.6057 12.7046 51.5884 12.75 51.58H13.34C13.4681 51.581 13.5933 51.6181 13.7012 51.6871C13.8091 51.7561 13.8954 51.8541 13.95 51.97C14.1344 52.2753 14.401 52.5226 14.7193 52.6836C15.0376 52.8445 15.3948 52.9126 15.75 52.88C16.75 52.88 17.52 52.28 17.52 51.67C17.52 51.06 17.08 50.7 16.01 50.45L14.91 50.19C13.34 49.86 12.6 49.07 12.6 47.86C12.6267 47.2169 12.8928 46.6069 13.3461 46.1499C13.7994 45.6929 14.4071 45.4219 15.05 45.39ZM6.94 49.75C6.94115 47.9025 7.52437 46.1024 8.60683 44.6052C9.68929 43.1081 11.216 41.9901 12.97 41.41C13.0337 41.3875 13.1018 41.3807 13.1687 41.3901C13.2356 41.3995 13.2992 41.425 13.3541 41.4642C13.4091 41.5035 13.4538 41.5554 13.4844 41.6156C13.515 41.6758 13.5306 41.7425 13.53 41.81V42.04C13.5297 42.2247 13.4743 42.4052 13.371 42.5584C13.2677 42.7115 13.1212 42.8305 12.95 42.9C11.5896 43.4491 10.4243 44.3922 9.60378 45.6083C8.78323 46.8244 8.34481 48.258 8.34481 49.725C8.34481 51.192 8.78323 52.6256 9.60378 53.8417C10.4243 55.0578 11.5896 56.0009 12.95 56.55C13.122 56.6213 13.2689 56.742 13.3721 56.8969C13.4754 57.0518 13.5303 57.2339 13.53 57.42V57.63C13.53 57.7493 13.4826 57.8638 13.3982 57.9482C13.3138 58.0326 13.1993 58.08 13.08 58.08H12.94C11.1932 57.4953 9.6742 56.3766 8.59759 54.8819C7.52097 53.3872 6.94115 51.5921 6.94 49.75ZM24.56 49.75C24.5617 51.5925 23.9843 53.389 22.9094 54.8856C21.8345 56.3821 20.3166 57.5031 18.57 58.09C18.4997 58.1137 18.4249 58.1204 18.3515 58.1096C18.2782 58.0988 18.2084 58.0708 18.148 58.0279C18.0875 57.985 18.038 57.9284 18.0036 57.8627C17.9692 57.797 17.9509 57.7241 17.95 57.65V57.48C17.9551 57.29 18.0142 57.1053 18.1205 56.9477C18.2267 56.79 18.3757 56.666 18.55 56.59C19.9073 56.0393 21.0694 55.0961 21.8876 53.8812C22.7058 52.6662 23.1428 51.2348 23.1428 49.77C23.1428 48.3052 22.7058 46.8738 21.8876 45.6588C21.0694 44.4439 19.9073 43.5007 18.55 42.95C18.3723 42.8748 18.2202 42.7498 18.112 42.5901C18.0038 42.4305 17.944 42.2429 17.94 42.05V41.9C17.94 41.64 18.15 41.43 18.41 41.43H18.56C20.3052 42.0141 21.823 43.1313 22.8995 44.624C23.976 46.1167 24.5568 47.9096 24.56 49.75Z" fill="white"/>
<path d="M35 0C26.1619 0 19 7.1619 19 16C19 24.8381 26.1619 32 35 32C43.8381 32 51 24.8381 51 16C51 7.1619 43.8381 0 35 0Z" fill="white"/>
<path d="M34.9466 7.31616L43.6862 16.0557L35.0443 24.6976L26.3047 15.9581L34.9466 7.31616ZM37.4785 16.0209L41.2031 16.0418L34.9606 9.79923L28.7878 15.972L32.5124 15.993L34.9815 13.5238L37.4785 16.0209Z" fill="black"/>
<path d="M56 66C47.163 66 40 58.837 40 50C40 41.163 47.163 34 56 34C64.837 34 72 41.163 72 50C72 58.837 64.837 66 56 66ZM59.378 39C55.508 39 52.221 41.976 51.808 45.807C47.975 46.221 45 49.508 45 53.377C45.0011 55.3982 45.8044 57.3364 47.2335 58.7658C48.6627 60.1951 50.6008 60.9987 52.622 61C56.492 61 59.792 58.024 60.192 54.193C64.024 53.779 67 50.492 67 46.623C66.9989 44.6018 66.1956 42.6636 64.7665 41.2342C63.3373 39.8049 61.3992 39.0013 59.378 39ZM65.214 47.476C65.0237 48.7261 64.4388 49.8826 63.5447 50.7767C62.6506 51.6708 61.4941 52.2557 60.244 52.446V47.476H65.214ZM46.786 52.524C46.9738 51.2716 47.5575 50.1122 48.4519 49.2155C49.3462 48.3188 50.5041 47.732 51.756 47.541V52.511H46.786V52.524ZM58.459 54.244C58.2525 55.6442 57.5492 56.9233 56.4775 57.8478C55.4058 58.7722 54.0373 59.2802 52.622 59.279C51.207 59.2802 49.8387 58.7723 48.7672 57.8481C47.6957 56.9238 46.9925 55.6449 46.786 54.245H58.459V54.244ZM58.524 47.476V52.511H53.476V47.476H58.524ZM65.214 45.756H53.541C53.7475 44.3558 54.4508 43.0767 55.5225 42.1522C56.5942 41.2278 57.9627 40.7198 59.378 40.721C60.793 40.7198 62.1613 41.2277 63.2328 42.1519C64.3043 43.0762 65.0075 44.3551 65.214 45.755V45.756Z" fill="white"/>
</svg>
